<?xml version="1.0" encoding="utf-8"?>
<!-- Generator: Adobe Illustrator 26.0.1, SVG Export Plug-In . SVG Version: 6.00 Build 0)  -->
<svg version="1.1" id="Layer_1" xmlns="http://www.w3.org/2000/svg" xmlns:xlink="http://www.w3.org/1999/xlink" x="0px" y="0px"
	 viewBox="0 0 20 20" style="enable-background:new 0 0 20 20;" xml:space="preserve">
<style type="text/css">
	.st0{fill:#FFFFFF;}
</style>
<path class="st0" d="M0.2,1.7C0.4,1.4,0.6,1.3,1,1.3c0.6,0,1.3,0,1.9,0c0.8,0,1.3,0.4,1.5,1.1c0.2,0.7,0.4,1.5,0.6,2.2
	C5,4.8,5,4.8,5.2,4.8c2.8,0,5.6,0,8.4,0c1.7,0,3.3,0,5,0c0.8,0,1.3,0.6,1.2,1.4c-0.5,2-0.9,4-1.4,6c-0.2,0.7-0.7,1.1-1.4,1.1
	c-0.2,0-0.5,0-0.7,0c-3.4,0-6.8,0-10.2,0c-0.1,0-0.2,0-0.3,0c-0.3,0-0.6,0.3-0.6,0.6c0,0.3,0.2,0.6,0.6,0.6c0.1,0,0.2,0,0.3,0
	c3.7,0,7.5,0,11.2,0c0.5,0,0.7,0.3,0.7,0.7c0,0.2-0.1,0.3-0.4,0.5c0.4,1,0.2,1.9-0.7,2.6c-0.7,0.5-1.6,0.4-2.3-0.1
	c-0.8-0.6-1-1.3-0.7-2.5c-1.2,0-2.4,0-3.6,0c0.4,1,0.2,1.9-0.7,2.5c-0.7,0.5-1.5,0.5-2.2,0c-0.9-0.6-1.1-1.5-0.7-2.5
	c-0.3,0-0.5,0-0.8,0c-0.9,0-1.6-0.6-1.8-1.5c-0.2-1,0.6-1.9,1.5-2c0,0,0.1,0,0.1,0c0-0.1,0-0.1,0-0.2C4.9,8.9,4.1,5.8,3.2,2.7
	C3.2,2.5,3.1,2.4,2.9,2.4c-0.6,0-1.3,0-1.9,0C0.6,2.4,0.3,2.3,0.2,2C0.2,1.9,0.2,1.8,0.2,1.7z M6,8.6c0.7,0,1.5,0,2.2,0
	c0-0.1,0-0.2,0-0.2C8.1,7.6,8,6.9,7.9,6.1C7.9,6,7.8,6,7.7,6C7,6,6.3,6,5.6,6C5.5,6,5.4,6,5.3,6C5.5,6.8,5.8,7.7,6,8.6z M12.7,8.5
	C12.8,8.6,12.8,8.6,12.7,8.5c0.7,0,1.4,0,2,0c0.1,0,0.1-0.1,0.2-0.2C15,7.9,15.1,7.5,15.1,7c0-0.3,0.1-0.7,0.1-1c-0.9,0-1.7,0-2.5,0
	C12.7,6.9,12.7,7.7,12.7,8.5z M11.6,6C10.7,6,9.9,6,9,6c0.1,0.9,0.2,1.7,0.3,2.6c0.7,0,1.5,0,2.2,0C11.6,7.7,11.6,6.8,11.6,6z
	 M18.6,6c-0.7,0-1.4,0-2.1,0c0,0-0.1,0.1-0.1,0.1c-0.1,0.5-0.1,0.9-0.2,1.4c0,0.3-0.1,0.7-0.1,1c0.7,0,1.3,0,2,0
	C18.2,7.7,18.4,6.9,18.6,6z M6.3,9.7c0.2,0.8,0.4,1.6,0.6,2.3c0,0.2,0.2,0.2,0.3,0.2c0.2,0,0.5,0,0.7,0c0.2,0,0.5,0,0.7,0
	c0-0.1,0-0.1,0-0.2c-0.1-0.6-0.2-1.2-0.2-1.8c0-0.2,0-0.5-0.1-0.6c-0.1-0.1-0.4,0-0.6,0C7.3,9.7,6.8,9.7,6.3,9.7z M14.8,9.7
	c-0.7,0-1.4,0-2,0c0,0.9,0,1.7,0,2.6c0.5,0,1.1,0,1.6,0c0,0,0.1-0.1,0.1-0.1c0.1-0.4,0.1-0.7,0.1-1.1C14.6,10.6,14.7,10.2,14.8,9.7z
	 M11.6,12.3c0-0.9,0-1.7,0-2.5c-0.7,0-1.3,0-2,0c0.1,0.9,0.2,1.7,0.3,2.5C10.4,12.3,11,12.3,11.6,12.3z M17.8,9.7
	c-0.6,0-1.2,0-1.9,0c-0.1,0.8-0.2,1.7-0.3,2.5c0.5,0,0.9,0,1.4,0c0.2,0,0.2-0.1,0.3-0.3c0.1-0.5,0.2-0.9,0.3-1.4
	C17.6,10.3,17.7,10,17.8,9.7z M8.5,17.6c0.5,0,0.9-0.4,0.9-0.9c0-0.5-0.4-0.8-0.9-0.9c-0.5,0-0.9,0.4-0.9,0.9
	C7.7,17.2,8,17.6,8.5,17.6z M15.8,17.6c0.5,0,0.9-0.4,0.9-0.9c0-0.5-0.4-0.9-0.9-0.9c-0.5,0-0.8,0.4-0.9,0.8
	C14.9,17.2,15.3,17.6,15.8,17.6z"/>
</svg>
